<svg xmlns="http://www.w3.org/2000/svg"  viewBox="0 0 24 24" width="24px" height="24px"><path d="M 12.009766 0 C 10.769766 0 9.7597656 1.009 9.7597656 2.25 C 9.7597656 2.3930753 9.775127 2.5322516 9.8007812 2.6679688 L 5.1933594 5.2890625 C 4.801412 4.9580151 4.3017099 4.75 3.75 4.75 C 2.51 4.75 1.5 5.759 1.5 7 C 1.5 7.9766825 2.1290589 8.8008035 3 9.1113281 L 3 14.888672 C 2.1290589 15.199196 1.5 16.023318 1.5 17 C 1.5 18.241 2.51 19.25 3.75 19.25 C 4.3022501 19.25 4.8032054 19.042566 5.1953125 18.710938 L 9.8007812 21.330078 C 9.7748946 21.466384 9.7597656 21.606263 9.7597656 21.75 C 9.7597656 22.991 10.769766 24 12.009766 24 C 13.249766 24 14.259766 22.991 14.259766 21.75 C 14.259766 21.604935 14.243152 21.463655 14.216797 21.326172 L 18.810547 18.714844 C 19.201905 19.043767 19.700266 19.25 20.25 19.25 C 21.49 19.25 22.5 18.241 22.5 17 C 22.5 16.023318 21.870941 15.199196 21 14.888672 L 21 9.1113281 C 21.870941 8.8008035 22.5 7.9766825 22.5 7 C 22.5 5.759 21.49 4.75 20.25 4.75 C 19.699278 4.75 19.200247 4.9571247 18.808594 5.2871094 L 14.214844 2.6757812 C 14.241459 2.5376505 14.259766 2.3957947 14.259766 2.25 C 14.259766 1.009 13.249766 0 12.009766 0 z M 12.009766 1.5 C 12.422766 1.5 12.759766 1.836 12.759766 2.25 C 12.759766 2.664 12.422766 3 12.009766 3 C 11.596766 3 11.259766 2.664 11.259766 2.25 C 11.259766 1.836 11.596766 1.5 12.009766 1.5 z M 10.001953 4.28125 L 4.5 14.144531 L 4.5 9.1113281 C 5.3709411 8.8008035 6 7.9766825 6 7 C 6 6.8562626 5.9848711 6.7163836 5.9589844 6.5800781 L 10.001953 4.28125 z M 14.007812 4.28125 L 18.042969 6.5761719 C 18.016591 6.7137109 18 6.8548727 18 7 C 18 7.9766825 18.629059 8.8008035 19.5 9.1113281 L 19.5 14.125 L 14.007812 4.28125 z M 11.621094 4.4609375 C 11.747813 4.4831847 11.876795 4.5 12.009766 4.5 C 12.141247 4.5 12.267199 4.4846528 12.392578 4.4628906 L 18.564453 15.525391 C 18.379383 15.736635 18.23486 15.980345 18.138672 16.25 L 5.8613281 16.25 C 5.7663984 15.983874 5.6250034 15.742581 5.4433594 15.533203 L 11.621094 4.4609375 z M 3.75 6.25 C 4.163 6.25 4.5 6.586 4.5 7 C 4.5 7.414 4.163 7.75 3.75 7.75 C 3.337 7.75 3 7.414 3 7 C 3 6.586 3.337 6.25 3.75 6.25 z M 20.25 6.25 C 20.663 6.25 21 6.586 21 7 C 21 7.414 20.663 7.75 20.25 7.75 C 19.837 7.75 19.5 7.414 19.5 7 C 19.5 6.586 19.837 6.25 20.25 6.25 z M 3.75 16.25 C 4.163 16.25 4.5 16.586 4.5 17 C 4.5 17.414 4.163 17.75 3.75 17.75 C 3.337 17.75 3 17.414 3 17 C 3 16.586 3.337 16.25 3.75 16.25 z M 20.25 16.25 C 20.663 16.25 21 16.586 21 17 C 21 17.414 20.663 17.75 20.25 17.75 C 19.837 17.75 19.5 17.414 19.5 17 C 19.5 16.586 19.837 16.25 20.25 16.25 z M 6.5410156 17.75 L 17.472656 17.75 L 13.451172 20.037109 C 13.059446 19.706866 12.560728 19.5 12.009766 19.5 C 11.457516 19.5 10.95656 19.707434 10.564453 20.039062 L 6.5410156 17.75 z M 12.009766 21 C 12.422766 21 12.759766 21.336 12.759766 21.75 C 12.759766 22.164 12.422766 22.5 12.009766 22.5 C 11.596766 22.5 11.259766 22.164 11.259766 21.75 C 11.259766 21.336 11.596766 21 12.009766 21 z"/></svg>