<svg width="188" height="40" viewBox="0 0 188 40" fill="none" xmlns="http://www.w3.org/2000/svg">
<path d="M48.2422 29.3594C47.9297 29.3594 47.6562 29.3411 47.4219 29.3047C47.1823 29.2734 46.9792 29.2344 46.8125 29.1875V27.1719C46.9792 27.2083 47.1589 27.2422 47.3516 27.2734C47.5391 27.3099 47.7396 27.3281 47.9531 27.3281C48.2344 27.3281 48.487 27.2734 48.7109 27.1641C48.9349 27.0599 49.112 26.8594 49.2422 26.5625C49.3724 26.2656 49.4375 25.8385 49.4375 25.2812V14.5781H51.8594V25.2656C51.8594 26.2448 51.7057 27.0339 51.3984 27.6328C51.0964 28.237 50.6719 28.6745 50.125 28.9453C49.5833 29.2214 48.9557 29.3594 48.2422 29.3594ZM65.1016 20.2734C65.1016 21.1536 64.9922 21.9557 64.7734 22.6797C64.5547 23.3984 64.2214 24.0182 63.7734 24.5391C63.3307 25.0599 62.7682 25.4609 62.0859 25.7422C61.4036 26.0182 60.5964 26.1562 59.6641 26.1562C58.7318 26.1562 57.9245 26.0182 57.2422 25.7422C56.5599 25.4609 55.9948 25.0599 55.5469 24.5391C55.1042 24.0182 54.7734 23.3958 54.5547 22.6719C54.3359 21.9479 54.2266 21.1432 54.2266 20.2578C54.2266 19.0755 54.4193 18.0469 54.8047 17.1719C55.1953 16.2917 55.7943 15.6094 56.6016 15.125C57.4089 14.6406 58.4349 14.3984 59.6797 14.3984C60.9193 14.3984 61.9375 14.6406 62.7344 15.125C63.5365 15.6094 64.1302 16.2917 64.5156 17.1719C64.9062 18.0521 65.1016 19.0859 65.1016 20.2734ZM56.7656 20.2734C56.7656 21.0703 56.8646 21.7578 57.0625 22.3359C57.2656 22.9089 57.5807 23.3516 58.0078 23.6641C58.4349 23.9714 58.987 24.125 59.6641 24.125C60.3516 24.125 60.9089 23.9714 61.3359 23.6641C61.763 23.3516 62.0729 22.9089 62.2656 22.3359C62.4635 21.7578 62.5625 21.0703 62.5625 20.2734C62.5625 19.0755 62.3385 18.1328 61.8906 17.4453C61.4427 16.7578 60.7057 16.4141 59.6797 16.4141C58.9974 16.4141 58.4401 16.5703 58.0078 16.8828C57.5807 17.1901 57.2656 17.6328 57.0625 18.2109C56.8646 18.7839 56.7656 19.4714 56.7656 20.2734ZM70.7969 14.5781C71.8333 14.5781 72.6875 14.7031 73.3594 14.9531C74.0365 15.2031 74.5391 15.5807 74.8672 16.0859C75.1953 16.5911 75.3594 17.2292 75.3594 18C75.3594 18.5208 75.2604 18.9766 75.0625 19.3672C74.8646 19.7578 74.6042 20.0885 74.2812 20.3594C73.9583 20.6302 73.6094 20.8516 73.2344 21.0234L76.5938 26H73.9062L71.1797 21.6172H69.8906V26H67.4688V14.5781H70.7969ZM70.625 16.5625H69.8906V19.6484H70.6719C71.474 19.6484 72.0469 19.5156 72.3906 19.25C72.7396 18.9792 72.9141 18.5833 72.9141 18.0625C72.9141 17.5208 72.7266 17.1354 72.3516 16.9062C71.9818 16.6771 71.4062 16.5625 70.625 16.5625ZM82.3672 19.5859H86.8984V25.5078C86.2995 25.7057 85.6771 25.8646 85.0312 25.9844C84.3854 26.099 83.6536 26.1562 82.8359 26.1562C81.7005 26.1562 80.737 25.9323 79.9453 25.4844C79.1536 25.0365 78.5521 24.375 78.1406 23.5C77.7292 22.625 77.5234 21.5495 77.5234 20.2734C77.5234 19.0755 77.7526 18.0391 78.2109 17.1641C78.6745 16.2891 79.349 15.612 80.2344 15.1328C81.125 14.6536 82.2109 14.4141 83.4922 14.4141C84.0964 14.4141 84.6927 14.4792 85.2812 14.6094C85.8698 14.7396 86.4036 14.9089 86.8828 15.1172L86.0781 17.0547C85.7292 16.8776 85.3307 16.7292 84.8828 16.6094C84.4349 16.4896 83.9661 16.4297 83.4766 16.4297C82.7734 16.4297 82.1615 16.5911 81.6406 16.9141C81.125 17.237 80.724 17.6901 80.4375 18.2734C80.1562 18.8516 80.0156 19.5339 80.0156 20.3203C80.0156 21.0651 80.1172 21.7266 80.3203 22.3047C80.5234 22.8776 80.8438 23.3281 81.2812 23.6562C81.7188 23.9792 82.2891 24.1406 82.9922 24.1406C83.3359 24.1406 83.625 24.125 83.8594 24.0938C84.099 24.0573 84.3229 24.0208 84.5312 23.9844V21.6016H82.3672V19.5859ZM96.2031 26H89.625V14.5781H96.2031V16.5625H92.0469V19.0703H95.9141V21.0547H92.0469V24H96.2031V26ZM107.586 26L104.836 17.0391H104.766C104.776 17.2526 104.792 17.5755 104.812 18.0078C104.839 18.4349 104.862 18.8906 104.883 19.375C104.904 19.8594 104.914 20.2969 104.914 20.6875V26H102.75V14.5781H106.047L108.75 23.3125H108.797L111.664 14.5781H114.961V26H112.703V20.5938C112.703 20.2344 112.708 19.8203 112.719 19.3516C112.734 18.8828 112.753 18.4375 112.773 18.0156C112.794 17.5885 112.81 17.2682 112.82 17.0547H112.75L109.805 26H107.586ZM124.422 26H117.844V14.5781H124.422V16.5625H120.266V19.0703H124.133V21.0547H120.266V24H124.422V26ZM136.945 26H133.867L128.898 17.3594H128.828C128.849 17.7188 128.867 18.0807 128.883 18.4453C128.898 18.8099 128.914 19.1745 128.93 19.5391C128.945 19.8984 128.961 20.2604 128.977 20.625V26H126.812V14.5781H129.867L134.828 23.1328H134.883C134.872 22.7786 134.859 22.4271 134.844 22.0781C134.828 21.7292 134.812 21.3802 134.797 21.0312C134.786 20.6823 134.776 20.3333 134.766 19.9844V14.5781H136.945V26ZM149.305 20.1797C149.305 21.4661 149.057 22.5417 148.562 23.4062C148.073 24.2656 147.362 24.9141 146.43 25.3516C145.497 25.7839 144.375 26 143.062 26H139.828V14.5781H143.414C144.612 14.5781 145.651 14.7917 146.531 15.2188C147.411 15.6406 148.094 16.2682 148.578 17.1016C149.062 17.9297 149.305 18.9557 149.305 20.1797ZM146.789 20.2422C146.789 19.3984 146.664 18.7057 146.414 18.1641C146.169 17.6172 145.805 17.2135 145.32 16.9531C144.841 16.6927 144.247 16.5625 143.539 16.5625H142.25V24H143.289C144.471 24 145.349 23.6849 145.922 23.0547C146.5 22.4245 146.789 21.487 146.789 20.2422ZM162.039 20.2734C162.039 21.1536 161.93 21.9557 161.711 22.6797C161.492 23.3984 161.159 24.0182 160.711 24.5391C160.268 25.0599 159.706 25.4609 159.023 25.7422C158.341 26.0182 157.534 26.1562 156.602 26.1562C155.669 26.1562 154.862 26.0182 154.18 25.7422C153.497 25.4609 152.932 25.0599 152.484 24.5391C152.042 24.0182 151.711 23.3958 151.492 22.6719C151.273 21.9479 151.164 21.1432 151.164 20.2578C151.164 19.0755 151.357 18.0469 151.742 17.1719C152.133 16.2917 152.732 15.6094 153.539 15.125C154.346 14.6406 155.372 14.3984 156.617 14.3984C157.857 14.3984 158.875 14.6406 159.672 15.125C160.474 15.6094 161.068 16.2917 161.453 17.1719C161.844 18.0521 162.039 19.0859 162.039 20.2734ZM153.703 20.2734C153.703 21.0703 153.802 21.7578 154 22.3359C154.203 22.9089 154.518 23.3516 154.945 23.6641C155.372 23.9714 155.924 24.125 156.602 24.125C157.289 24.125 157.846 23.9714 158.273 23.6641C158.701 23.3516 159.01 22.9089 159.203 22.3359C159.401 21.7578 159.5 21.0703 159.5 20.2734C159.5 19.0755 159.276 18.1328 158.828 17.4453C158.38 16.7578 157.643 16.4141 156.617 16.4141C155.935 16.4141 155.378 16.5703 154.945 16.8828C154.518 17.1901 154.203 17.6328 154 18.2109C153.802 18.7839 153.703 19.4714 153.703 20.2734ZM171.852 26H163.352V24.4297L168.828 16.5781H163.5V14.5781H171.703V16.1406L166.234 24H171.852V26ZM180.664 26L179.836 23.2812H175.672L174.844 26H172.234L176.266 14.5312H179.227L183.273 26H180.664ZM179.258 21.25L178.43 18.5938C178.378 18.4167 178.307 18.1901 178.219 17.9141C178.135 17.6328 178.049 17.349 177.961 17.0625C177.878 16.7708 177.81 16.5182 177.758 16.3047C177.706 16.5182 177.633 16.7839 177.539 17.1016C177.451 17.4141 177.365 17.7109 177.281 17.9922C177.198 18.2734 177.138 18.474 177.102 18.5938L176.281 21.25H179.258Z" fill="#FAFAFF"/>
<circle cx="20" cy="20" r="20" fill="#FAFAFF"/>
<path d="M10.424 28.288C9.24 28.288 8.24 28.056 7.424 27.592C6.608 27.112 5.928 26.4 5.384 25.456L7.784 23.68C8.072 24.208 8.408 24.6 8.792 24.856C9.176 25.112 9.568 25.24 9.968 25.24C10.608 25.24 11.088 25.048 11.408 24.664C11.744 24.264 11.912 23.544 11.912 22.504V12.352H15.44V22.792C15.44 23.8 15.264 24.72 14.912 25.552C14.56 26.384 14.008 27.048 13.256 27.544C12.52 28.04 11.576 28.288 10.424 28.288Z" fill="#003554"/>
<path d="M16.848 28V12.352H20.712L23.232 19.312C23.392 19.76 23.544 20.232 23.688 20.728C23.832 21.224 23.984 21.712 24.144 22.192H24.24C24.4 21.712 24.544 21.224 24.672 20.728C24.816 20.232 24.968 19.76 25.128 19.312L27.6 12.352H31.44V28H28.224V22.264C28.224 21.752 28.248 21.184 28.296 20.56C28.36 19.92 28.424 19.28 28.488 18.64C28.568 18 28.632 17.432 28.68 16.936H28.584L27.312 20.656L25.08 26.632H23.136L20.904 20.656L19.656 16.936H19.56C19.624 17.432 19.688 18 19.752 18.64C19.816 19.28 19.872 19.92 19.92 20.56C19.984 21.184 20.016 21.752 20.016 22.264V28H16.848Z" fill="#003554"/>
</svg>
