<svg width="190" height="40" viewBox="0 0 190 40" fill="none" xmlns="http://www.w3.org/2000/svg">
<path d="M50.2422 29.3594C49.9297 29.3594 49.6562 29.3411 49.4219 29.3047C49.1823 29.2734 48.9792 29.2344 48.8125 29.1875V27.1719C48.9792 27.2083 49.1589 27.2422 49.3516 27.2734C49.5391 27.3099 49.7396 27.3281 49.9531 27.3281C50.2344 27.3281 50.487 27.2734 50.7109 27.1641C50.9349 27.0599 51.112 26.8594 51.2422 26.5625C51.3724 26.2656 51.4375 25.8385 51.4375 25.2812V14.5781H53.8594V25.2656C53.8594 26.2448 53.7057 27.0339 53.3984 27.6328C53.0964 28.237 52.6719 28.6745 52.125 28.9453C51.5833 29.2214 50.9557 29.3594 50.2422 29.3594ZM67.1016 20.2734C67.1016 21.1536 66.9922 21.9557 66.7734 22.6797C66.5547 23.3984 66.2214 24.0182 65.7734 24.5391C65.3307 25.0599 64.7682 25.4609 64.0859 25.7422C63.4036 26.0182 62.5964 26.1562 61.6641 26.1562C60.7318 26.1562 59.9245 26.0182 59.2422 25.7422C58.5599 25.4609 57.9948 25.0599 57.5469 24.5391C57.1042 24.0182 56.7734 23.3958 56.5547 22.6719C56.3359 21.9479 56.2266 21.1432 56.2266 20.2578C56.2266 19.0755 56.4193 18.0469 56.8047 17.1719C57.1953 16.2917 57.7943 15.6094 58.6016 15.125C59.4089 14.6406 60.4349 14.3984 61.6797 14.3984C62.9193 14.3984 63.9375 14.6406 64.7344 15.125C65.5365 15.6094 66.1302 16.2917 66.5156 17.1719C66.9062 18.0521 67.1016 19.0859 67.1016 20.2734ZM58.7656 20.2734C58.7656 21.0703 58.8646 21.7578 59.0625 22.3359C59.2656 22.9089 59.5807 23.3516 60.0078 23.6641C60.4349 23.9714 60.987 24.125 61.6641 24.125C62.3516 24.125 62.9089 23.9714 63.3359 23.6641C63.763 23.3516 64.0729 22.9089 64.2656 22.3359C64.4635 21.7578 64.5625 21.0703 64.5625 20.2734C64.5625 19.0755 64.3385 18.1328 63.8906 17.4453C63.4427 16.7578 62.7057 16.4141 61.6797 16.4141C60.9974 16.4141 60.4401 16.5703 60.0078 16.8828C59.5807 17.1901 59.2656 17.6328 59.0625 18.2109C58.8646 18.7839 58.7656 19.4714 58.7656 20.2734ZM72.7969 14.5781C73.8333 14.5781 74.6875 14.7031 75.3594 14.9531C76.0365 15.2031 76.5391 15.5807 76.8672 16.0859C77.1953 16.5911 77.3594 17.2292 77.3594 18C77.3594 18.5208 77.2604 18.9766 77.0625 19.3672C76.8646 19.7578 76.6042 20.0885 76.2812 20.3594C75.9583 20.6302 75.6094 20.8516 75.2344 21.0234L78.5938 26H75.9062L73.1797 21.6172H71.8906V26H69.4688V14.5781H72.7969ZM72.625 16.5625H71.8906V19.6484H72.6719C73.474 19.6484 74.0469 19.5156 74.3906 19.25C74.7396 18.9792 74.9141 18.5833 74.9141 18.0625C74.9141 17.5208 74.7266 17.1354 74.3516 16.9062C73.9818 16.6771 73.4062 16.5625 72.625 16.5625ZM84.3672 19.5859H88.8984V25.5078C88.2995 25.7057 87.6771 25.8646 87.0312 25.9844C86.3854 26.099 85.6536 26.1562 84.8359 26.1562C83.7005 26.1562 82.737 25.9323 81.9453 25.4844C81.1536 25.0365 80.5521 24.375 80.1406 23.5C79.7292 22.625 79.5234 21.5495 79.5234 20.2734C79.5234 19.0755 79.7526 18.0391 80.2109 17.1641C80.6745 16.2891 81.349 15.612 82.2344 15.1328C83.125 14.6536 84.2109 14.4141 85.4922 14.4141C86.0964 14.4141 86.6927 14.4792 87.2812 14.6094C87.8698 14.7396 88.4036 14.9089 88.8828 15.1172L88.0781 17.0547C87.7292 16.8776 87.3307 16.7292 86.8828 16.6094C86.4349 16.4896 85.9661 16.4297 85.4766 16.4297C84.7734 16.4297 84.1615 16.5911 83.6406 16.9141C83.125 17.237 82.724 17.6901 82.4375 18.2734C82.1562 18.8516 82.0156 19.5339 82.0156 20.3203C82.0156 21.0651 82.1172 21.7266 82.3203 22.3047C82.5234 22.8776 82.8438 23.3281 83.2812 23.6562C83.7188 23.9792 84.2891 24.1406 84.9922 24.1406C85.3359 24.1406 85.625 24.125 85.8594 24.0938C86.099 24.0573 86.3229 24.0208 86.5312 23.9844V21.6016H84.3672V19.5859ZM98.2031 26H91.625V14.5781H98.2031V16.5625H94.0469V19.0703H97.9141V21.0547H94.0469V24H98.2031V26ZM109.586 26L106.836 17.0391H106.766C106.776 17.2526 106.792 17.5755 106.812 18.0078C106.839 18.4349 106.862 18.8906 106.883 19.375C106.904 19.8594 106.914 20.2969 106.914 20.6875V26H104.75V14.5781H108.047L110.75 23.3125H110.797L113.664 14.5781H116.961V26H114.703V20.5938C114.703 20.2344 114.708 19.8203 114.719 19.3516C114.734 18.8828 114.753 18.4375 114.773 18.0156C114.794 17.5885 114.81 17.2682 114.82 17.0547H114.75L111.805 26H109.586ZM126.422 26H119.844V14.5781H126.422V16.5625H122.266V19.0703H126.133V21.0547H122.266V24H126.422V26ZM138.945 26H135.867L130.898 17.3594H130.828C130.849 17.7188 130.867 18.0807 130.883 18.4453C130.898 18.8099 130.914 19.1745 130.93 19.5391C130.945 19.8984 130.961 20.2604 130.977 20.625V26H128.812V14.5781H131.867L136.828 23.1328H136.883C136.872 22.7786 136.859 22.4271 136.844 22.0781C136.828 21.7292 136.812 21.3802 136.797 21.0312C136.786 20.6823 136.776 20.3333 136.766 19.9844V14.5781H138.945V26ZM151.305 20.1797C151.305 21.4661 151.057 22.5417 150.562 23.4062C150.073 24.2656 149.362 24.9141 148.43 25.3516C147.497 25.7839 146.375 26 145.062 26H141.828V14.5781H145.414C146.612 14.5781 147.651 14.7917 148.531 15.2188C149.411 15.6406 150.094 16.2682 150.578 17.1016C151.062 17.9297 151.305 18.9557 151.305 20.1797ZM148.789 20.2422C148.789 19.3984 148.664 18.7057 148.414 18.1641C148.169 17.6172 147.805 17.2135 147.32 16.9531C146.841 16.6927 146.247 16.5625 145.539 16.5625H144.25V24H145.289C146.471 24 147.349 23.6849 147.922 23.0547C148.5 22.4245 148.789 21.487 148.789 20.2422ZM164.039 20.2734C164.039 21.1536 163.93 21.9557 163.711 22.6797C163.492 23.3984 163.159 24.0182 162.711 24.5391C162.268 25.0599 161.706 25.4609 161.023 25.7422C160.341 26.0182 159.534 26.1562 158.602 26.1562C157.669 26.1562 156.862 26.0182 156.18 25.7422C155.497 25.4609 154.932 25.0599 154.484 24.5391C154.042 24.0182 153.711 23.3958 153.492 22.6719C153.273 21.9479 153.164 21.1432 153.164 20.2578C153.164 19.0755 153.357 18.0469 153.742 17.1719C154.133 16.2917 154.732 15.6094 155.539 15.125C156.346 14.6406 157.372 14.3984 158.617 14.3984C159.857 14.3984 160.875 14.6406 161.672 15.125C162.474 15.6094 163.068 16.2917 163.453 17.1719C163.844 18.0521 164.039 19.0859 164.039 20.2734ZM155.703 20.2734C155.703 21.0703 155.802 21.7578 156 22.3359C156.203 22.9089 156.518 23.3516 156.945 23.6641C157.372 23.9714 157.924 24.125 158.602 24.125C159.289 24.125 159.846 23.9714 160.273 23.6641C160.701 23.3516 161.01 22.9089 161.203 22.3359C161.401 21.7578 161.5 21.0703 161.5 20.2734C161.5 19.0755 161.276 18.1328 160.828 17.4453C160.38 16.7578 159.643 16.4141 158.617 16.4141C157.935 16.4141 157.378 16.5703 156.945 16.8828C156.518 17.1901 156.203 17.6328 156 18.2109C155.802 18.7839 155.703 19.4714 155.703 20.2734ZM173.852 26H165.352V24.4297L170.828 16.5781H165.5V14.5781H173.703V16.1406L168.234 24H173.852V26ZM182.664 26L181.836 23.2812H177.672L176.844 26H174.234L178.266 14.5312H181.227L185.273 26H182.664ZM181.258 21.25L180.43 18.5938C180.378 18.4167 180.307 18.1901 180.219 17.9141C180.135 17.6328 180.049 17.349 179.961 17.0625C179.878 16.7708 179.81 16.5182 179.758 16.3047C179.706 16.5182 179.633 16.7839 179.539 17.1016C179.451 17.4141 179.365 17.7109 179.281 17.9922C179.198 18.2734 179.138 18.474 179.102 18.5938L178.281 21.25H181.258Z" fill="white"/>
<circle cx="20" cy="20" r="20" fill="#FAFAFF"/>
<path d="M11.52 26.24C10.5333 26.24 9.7 26.0467 9.02 25.66C8.34 25.26 7.77333 24.6667 7.32 23.88L9.32 22.4C9.56 22.84 9.84 23.1667 10.16 23.38C10.48 23.5933 10.8067 23.7 11.14 23.7C11.6733 23.7 12.0733 23.54 12.34 23.22C12.62 22.8867 12.76 22.2867 12.76 21.42V12.96H15.7V21.66C15.7 22.5 15.5533 23.2667 15.26 23.96C14.9667 24.6533 14.5067 25.2067 13.88 25.62C13.2667 26.0333 12.48 26.24 11.52 26.24Z" fill="#111111"/>
<path d="M18.54 26V12.96H21.76L23.86 18.76C23.9933 19.1333 24.12 19.5267 24.24 19.94C24.36 20.3533 24.4867 20.76 24.62 21.16H24.7C24.8333 20.76 24.9533 20.3533 25.06 19.94C25.18 19.5267 25.3067 19.1333 25.44 18.76L27.5 12.96H30.7V26H28.02V21.22C28.02 20.7933 28.04 20.32 28.08 19.8C28.1333 19.2667 28.1867 18.7333 28.24 18.2C28.3067 17.6667 28.36 17.1933 28.4 16.78H28.32L27.26 19.88L25.4 24.86H23.78L21.92 19.88L20.88 16.78H20.8C20.8533 17.1933 20.9067 17.6667 20.96 18.2C21.0133 18.7333 21.06 19.2667 21.1 19.8C21.1533 20.32 21.18 20.7933 21.18 21.22V26H18.54Z" fill="#141414"/>
</svg>
